<svg id="Layer_1" enable-background="new 0 0 512 512" height="50" viewBox="0 0 512 512" width="50" xmlns="http://www.w3.org/2000/svg"><g><path d="m62.705 417.544h386.589c32.398-41.539 51.707-93.785 51.707-150.546 0-135.311-109.691-245.002-245.002-245.002s-245.001 109.691-245.001 245.002c0 56.761 19.309 109.007 51.707 150.546z" fill="#2a428c"/><path d="m426.304 7h-226.619l11.305 53.861s-18.08 23.434 0 41.514l-4.018 14 17.189 41.889s-23.696 33.502 0 65.994c0 0-17.637 24.077-17.637 47.951s17.637 47.951 17.637 47.951-25.363 28.399 0 65.994c0 0-15.637 32.683-15.637 55.889 0 0-16.569 19.321 2.466 41.514l-10.48 22.114c.381.088.757.189 1.138.275l.003-.007 14 2.734.018.012c13.122 2.176 26.593 3.315 40.331 3.315 13.74 0 27.213-1.14 40.336-3.315l.012-.011 14-2.734.014.004c8.967-2.032 17.744-4.564 26.308-7.55l.001-.004 13.492-5.166c35.797-14.921 67.303-38.075 92.132-67.118v-403.116c0-8.831-7.16-15.99-15.991-15.99z" fill="#92c357"/><path d="m69.705 22.99v403.117c24.829 29.043 56.336 52.197 92.132 67.118l13.492 5.165.001.004c8.567 2.987 17.347 5.52 26.318 7.552l.003-.007.669.131 10.669-22.513c-19.034-22.192-2.466-41.514-2.466-41.514 0-23.206 15.637-55.889 15.637-55.889-25.363-37.595 0-65.994 0-65.994s-17.637-24.077-17.637-47.951 17.637-47.951 17.637-47.951c-23.696-32.492 0-65.994 0-65.994l-17.189-41.889 4.018-14c-18.08-18.08 0-41.514 0-41.514l-11.304-53.861h-115.989c-8.832 0-15.991 7.159-15.991 15.99z" fill="#6faf46"/><g><path d="m256 286.429c-3.866 0-7-3.134-7-7v-14.599c0-3.866 3.134-7 7-7s7 3.134 7 7v14.599c0 3.866-3.134 7-7 7z" fill="#bec8f7"/></g><g><path d="m336.146 116.375h-160.292c-8.009 0-14.525-6.516-14.525-14.525v-92.333c0-3.866 3.134-7 7-7s7 3.134 7 7v92.333c0 .29.235.525.525.525h160.291c.29 0 .525-.235.525-.525v-92.958c0-3.866 3.134-7 7-7s7 3.134 7 7v92.957c.001 8.01-6.515 14.526-14.524 14.526z" fill="#d3dcfb"/></g><g><path d="m299.009 60.861h-86.018c-6.253 0-11.339-5.087-11.339-11.339v-40.63c0-3.866 3.134-7 7-7s7 3.134 7 7v37.97h80.696v-37.814c0-3.866 3.134-7 7-7s7 3.134 7 7v40.475c0 6.251-5.087 11.338-11.339 11.338z" fill="#e9efff"/></g><g><path d="m256 166.808c-31.151 0-56.495-25.344-56.495-56.495 0-3.866 3.134-7 7-7s7 3.134 7 7c0 23.432 19.063 42.495 42.495 42.495s42.495-19.064 42.495-42.495c0-3.866 3.134-7 7-7s7 3.134 7 7c0 31.151-25.344 56.495-56.495 56.495z" fill="#e9efff"/></g><g><path d="m440.613 279.209h-369.226c-3.866 0-7-3.134-7-7s3.134-7 7-7h369.226c3.866 0 7 3.134 7 7s-3.134 7-7 7z" fill="#d3dcfb"/></g><g><path d="m256 328.704c-31.151 0-56.495-25.344-56.495-56.495s25.343-56.494 56.495-56.494c31.151 0 56.495 25.343 56.495 56.494s-25.344 56.495-56.495 56.495zm0-98.989c-23.432 0-42.495 19.062-42.495 42.494s19.063 42.495 42.495 42.495 42.495-19.064 42.495-42.495c0-23.432-19.064-42.494-42.495-42.494z" fill="#e9efff"/></g><g><path d="m437.865 54.243c-22.564 0-40.921-18.357-40.921-40.922 0-3.866 3.134-7 7-7s7 3.134 7 7c0 14.845 12.077 26.922 26.921 26.922 3.866 0 7 3.134 7 7s-3.133 7-7 7z" fill="#d3dcfb"/></g><g><path d="m74.134 54.243c-3.866 0-7-3.134-7-7s3.134-7 7-7c14.845 0 26.921-12.077 26.921-26.922 0-3.866 3.134-7 7-7s7 3.134 7 7c.001 22.565-18.357 40.922-40.921 40.922z" fill="#d3dcfb"/></g><g><path d="m257.302 87.382h-2.605c-3.866 0-7-3.134-7-7s3.134-7 7-7h2.605c3.866 0 7 3.134 7 7s-3.133 7-7 7z" fill="#bec8f7"/></g><path d="m336.146 428.044h-160.292c-8.009 0-14.525 6.516-14.525 14.525v50.461c4.596 1.927 9.267 3.71 14 5.36v-55.821c0-.29.235-.525.525-.525h160.291c.29 0 .525.235.525.525v55.821c4.733-1.65 9.404-3.433 14-5.36v-50.461c.001-8.009-6.515-14.525-14.524-14.525z" fill="#d3dcfb"/><path d="m299.009 483.558h-86.018c-6.253 0-11.339 5.087-11.339 11.339v11.044c4.618 1.046 9.287 1.953 14 2.734v-11.116h80.696v11.116c4.713-.781 9.382-1.688 14-2.734v-11.044c0-6.252-5.087-11.339-11.339-11.339z" fill="#e9efff"/><g><path d="m305.495 441.105c-3.866 0-7-3.134-7-7 0-23.432-19.063-42.494-42.495-42.494s-42.495 19.062-42.495 42.494c0 3.866-3.134 7-7 7s-7-3.134-7-7c0-31.151 25.343-56.494 56.495-56.494 31.151 0 56.495 25.343 56.495 56.494 0 3.867-3.134 7-7 7z" fill="#e9efff"/></g><g><path d="m257.302 471.037h-2.605c-3.866 0-7-3.134-7-7s3.134-7 7-7h2.605c3.866 0 7 3.134 7 7s-3.133 7-7 7z" fill="#bec8f7"/></g><path d="m449.295 417.544v-394.554c0-12.677-10.314-22.99-22.991-22.99h-340.608c-12.677 0-22.99 10.313-22.99 22.99v394.554c4.426 5.674 9.101 11.142 14 16.401v-410.955c0-4.957 4.033-8.99 8.99-8.99h340.608c4.958 0 8.991 4.033 8.991 8.99v410.955c4.898-5.259 9.574-10.727 14-16.401z" fill="#e9efff"/><g fill="#3c58a0"><path d="m23.279 343.776c11.612-7.433 19.357-20.438 19.357-35.172v-95.782c0-13.172-6.19-24.961-15.797-32.625-10.226 26.983-15.84 56.234-15.84 86.801-.001 26.819 4.315 52.628 12.28 76.778z"/><path d="m469.364 212.822v95.782c0 14.734 7.744 27.739 19.357 35.172 7.965-24.15 12.281-49.959 12.281-76.778 0-30.567-5.614-59.818-15.84-86.801-9.608 7.664-15.798 19.454-15.798 32.625z"/></g></g></svg>